<svg width="18" height="17" viewBox="0 0 18 17" fill="none" xmlns="http://www.w3.org/2000/svg">
<path d="M9.0323 0.68158C4.55194 0.68158 0.923828 4.31781 0.923828 8.79817C0.923828 13.2785 4.55194 16.9148 9.0323 16.9148C13.5208 16.9148 17.157 13.2785 17.157 8.79817C17.157 4.31781 13.5208 0.68158 9.0323 0.68158ZM14.6571 5.55153H12.2627C12.003 4.53696 11.6296 3.56297 11.1426 2.66203C12.6361 3.17337 13.8779 4.2123 14.6571 5.55153ZM9.04042 2.33736C9.7141 3.31136 10.2417 4.39086 10.5907 5.55153H7.49015C7.83916 4.39086 8.36674 3.31136 9.04042 2.33736ZM2.75818 10.4215C2.62831 9.90203 2.54715 9.35822 2.54715 8.79817C2.54715 8.23813 2.62831 7.69432 2.75818 7.17485H5.50159C5.43665 7.71055 5.38795 8.24624 5.38795 8.79817C5.38795 9.3501 5.43665 9.88579 5.50159 10.4215H2.75818ZM3.42374 12.0448H5.81813C6.07786 13.0594 6.45123 14.0334 6.93822 14.9343C5.44477 14.423 4.20293 13.3922 3.42374 12.0448ZM5.81813 5.55153H3.42374C4.20293 4.20418 5.44477 3.17337 6.93822 2.66203C6.45123 3.56297 6.07786 4.53696 5.81813 5.55153ZM9.04042 15.259C8.36674 14.285 7.83916 13.2055 7.49015 12.0448H10.5907C10.2417 13.2055 9.7141 14.285 9.04042 15.259ZM10.9397 10.4215H7.14114C7.06809 9.88579 7.01127 9.3501 7.01127 8.79817C7.01127 8.24624 7.06809 7.70243 7.14114 7.17485H10.9397C11.0128 7.70243 11.0696 8.24624 11.0696 8.79817C11.0696 9.3501 11.0128 9.88579 10.9397 10.4215ZM11.1426 14.9343C11.6296 14.0334 12.003 13.0594 12.2627 12.0448H14.6571C13.8779 13.384 12.6361 14.423 11.1426 14.9343ZM12.5793 10.4215C12.6442 9.88579 12.6929 9.3501 12.6929 8.79817C12.6929 8.24624 12.6442 7.71055 12.5793 7.17485H15.3227C15.4525 7.69432 15.5337 8.23813 15.5337 8.79817C15.5337 9.35822 15.4525 9.90203 15.3227 10.4215H12.5793Z" fill="white"/>
</svg>
