<svg width="16" height="15" viewBox="0 0 16 15" fill="none" xmlns="http://www.w3.org/2000/svg">
<path d="M3.57883 6.44392C4.74762 8.74091 6.63067 10.6158 8.92766 11.7928L10.7133 10.0071C10.9325 9.78795 11.2571 9.7149 11.5412 9.8123C12.4503 10.1126 13.4324 10.2749 14.4388 10.2749C14.8852 10.2749 15.2505 10.6402 15.2505 11.0866V13.9193C15.2505 14.3657 14.8852 14.731 14.4388 14.731C6.81735 14.731 0.640625 8.55423 0.640625 0.932753C0.640625 0.48634 1.00587 0.121094 1.45228 0.121094H4.29309C4.7395 0.121094 5.10475 0.48634 5.10475 0.932753C5.10475 1.94733 5.26708 2.92132 5.5674 3.83038C5.65668 4.11446 5.59175 4.431 5.36448 4.65827L3.57883 6.44392Z" fill="white"/>
</svg>
