<svg width="59" height="49" viewBox="0 0 59 49" fill="none" xmlns="http://www.w3.org/2000/svg">
<path d="M19.8886 31.818C16.8961 33.6883 11.3162 35.0911 9.13414 35.5587L18.4859 48.6511L47.0086 40.7021L58.6983 13.1145L54.0224 7.0359C51.9962 6.72417 46.7281 5.53962 43.7355 5.16555C39.9948 4.69797 21.759 10.7766 18.4859 10.7766C15.8674 10.7766 8.04311 4.23038 4.45828 0.957275L0.25 4.23038C3.36724 8.43866 10.6304 17.2293 14.7452 18.7256C19.8886 20.5959 33.9162 16.8552 32.981 18.7256C32.0459 20.5959 23.6293 29.4801 19.8886 31.818Z" fill="url(#paint0_linear_0_1521)"/>
<defs>
<linearGradient id="paint0_linear_0_1521" x1="13" y1="0.999999" x2="38.8466" y2="31.3761" gradientUnits="userSpaceOnUse">
<stop stop-color="#98D0FC"/>
<stop offset="1" stop-color="#3481D7"/>
</linearGradient>
</defs>
</svg>
