<svg width="50" height="62" viewBox="0 0 50 62" fill="none" xmlns="http://www.w3.org/2000/svg">
<path d="M2.23144 25.6841C-0.761108 24.5619 0.984548 18.6703 2.23144 15.8648C3.77041 10.7214 13.9208 1.83723 20.9346 0.434474C27.9484 -0.968285 37.3001 6.98068 37.3001 12.1241C37.3001 17.2676 37.3001 20.0731 43.8464 23.8138C50.3926 27.5545 51.7953 37.3738 44.7815 41.5821C37.7677 45.7903 38.7029 42.5172 28.416 46.2579C18.1291 49.9986 12.5181 67.2993 8.3098 59.8179C4.10152 52.3366 11.1153 52.8041 6.90704 47.6607C2.69877 42.5172 12.9857 34.5683 12.5181 30.8276C12.0505 27.0869 5.97213 27.0869 2.23144 25.6841Z" fill="url(#paint0_linear_0_1525)"/>
<defs>
<linearGradient id="paint0_linear_0_1525" x1="25.0078" y1="0.271118" x2="25.0078" y2="61.6743" gradientUnits="userSpaceOnUse">
<stop stop-color="#AF6CED"/>
<stop offset="1" stop-color="#5E199D"/>
</linearGradient>
</defs>
</svg>
